<svg width="128" height="128" viewBox="0 0 128 128" fill="none" xmlns="http://www.w3.org/2000/svg"><path class="bg" d="M0 0h128v128H0z"/><path d="M96.192 34.002 92.444 32v-.5H71.111a4.056 4.056 0 0 0 0 8.111h11.543L57.58 64.685a4.055 4.055 0 1 0 5.735 5.735l25.074-25.074v11.543a4.056 4.056 0 0 0 8.111 0V35.544a4.052 4.052 0 0 0-.308-1.541Zm-59.339 2.851A18.278 18.278 0 0 0 31.5 49.778v28.444A18.278 18.278 0 0 0 49.778 96.5h28.444A18.278 18.278 0 0 0 96.5 78.222v-3.555a4.056 4.056 0 0 0-8.111 0v3.555A10.166 10.166 0 0 1 78.222 88.39H49.778A10.166 10.166 0 0 1 39.61 78.222V49.778A10.166 10.166 0 0 1 49.778 39.61h3.555a4.056 4.056 0 0 0 0-8.111h-3.555a18.278 18.278 0 0 0-12.925 5.353Z"/>
<style>
  .bg { fill: #fff; }
  path { fill: #000; stroke: #000; }

    @media (prefers-color-scheme: dark) {
      .bg { fill: #000; }
      path { fill: #FFF; stroke: #FFF; }
    }
</style>
</svg>